# xmcd CD database file
#
# Track frame offsets:
#	150
#	19096
#	37933
#	55264
#	75887
#	96934
#	120364
#	135864
#	150749
#	166522
#	194869
#	210287
#
# Disc length: 3080 seconds
#
# Revision: 2
# Processed by: cddbd v1.5.1PL0 Copyright (c) Steve Scherf et al.
# Submitted via: CDex 1.51
#
DISCID=840c060c
DTITLE=Kenny Neal - Hoodoo Moon
DYEAR=1994
DGENRE=Blues
TTITLE0=I'm A Blues Man
TTITLE1=Don't Fix Our Love
TTITLE2=Why Should I Stay?
TTITLE3=Just One Step
TTITLE4=The Real Thing
TTITLE5=If Heartaches Were Nickels
TTITLE6=Bad Memory
TTITLE7=Hoodoo Moon
TTITLE8=Believe In Yourself
TTITLE9=Carrying The Torch
TTITLE10=Money Don't Make The Man
TTITLE11=It Hurts Me Too
EXTD=YEAR: 1994
EXTT0=
EXTT1=
EXTT2=
EXTT3=
EXTT4=
EXTT5=
EXTT6=
EXTT7=
EXTT8=
EXTT9=
EXTT10=
EXTT11=
PLAYORDER=
